# xmcd CD database file
#
# Track frame offsets:
#	150
#	22564
#	44271
#	78046
#	100209
#	112830
#	143563
#	163634
#
# Disc length: 2505 seconds
#
# Revision: 0
# Processed by: cddbd v1.5.1PL0 Copyright (c) Steve Scherf et al.
# Submitted via: CDex 1.50
#
DISCID=4a09c708
DTITLE=Kieran Kane and Kevin Welch - You Cant Save Everybody (Live)
DYEAR=2004
DGENRE=Blues
TTITLE0=Honeymoon Wine
TTITLE1=Millionaire
TTITLE2=Tired Of The Runnin
TTITLE3=Early Summer Rain
TTITLE4=Wolves A Howlin
TTITLE5=Long Cold Train
TTITLE6=In A Town This Size
TTITLE7=While I Was Loving You
EXTD=YEAR: 2004
EXTT0=
EXTT1=
EXTT2=
EXTT3=
EXTT4=
EXTT5=
EXTT6=
EXTT7=
PLAYORDER=
